G04 #@! TF.FileFunction,Soldermask,Bot*
%FSLAX46Y46*%
G04 Gerber Fmt 4.6, Leading zero omitted, Abs format (unit mm)*
G04 Created by KiCad (PCBNEW 4.0.7) date Sunday 08 October 2017 21:23:55*
%MOMM*%
%LPD*%
G01*
G04 APERTURE LIST*
%ADD10C,0.100000*%
%ADD11R,2.400000X2.400000*%
%ADD12C,2.400000*%
%ADD13R,2.127200X2.432000*%
%ADD14O,2.127200X2.432000*%
%ADD15R,2.432000X2.432000*%
%ADD16O,2.432000X2.432000*%
%ADD17C,2.398980*%
%ADD18O,2.700000X2.000000*%
G04 APERTURE END LIST*
D10*
D11*
X104650000Y-77410000D03*
D12*
X104650000Y-79910000D03*
D11*
X104710000Y-88460000D03*
D12*
X104710000Y-90960000D03*
D11*
X115560000Y-71550000D03*
D12*
X115560000Y-66550000D03*
D11*
X106690000Y-67820000D03*
D12*
X111690000Y-67820000D03*
D11*
X128360000Y-91570000D03*
D12*
X128360000Y-94070000D03*
D11*
X158700000Y-77510000D03*
D12*
X158700000Y-80010000D03*
D11*
X158760000Y-88700000D03*
D12*
X158760000Y-91200000D03*
D11*
X147630000Y-71440000D03*
D12*
X147630000Y-66440000D03*
D11*
X156650000Y-67660000D03*
D12*
X151650000Y-67660000D03*
D11*
X134640000Y-91590000D03*
D12*
X134640000Y-94090000D03*
D13*
X133540000Y-62000000D03*
D14*
X131000000Y-62000000D03*
X128460000Y-62000000D03*
D15*
X101810000Y-83000000D03*
D16*
X101810000Y-85540000D03*
D15*
X115000000Y-94000000D03*
D16*
X112460000Y-94000000D03*
D13*
X115000000Y-62000000D03*
D14*
X112460000Y-62000000D03*
X109920000Y-62000000D03*
D15*
X161210000Y-83000000D03*
D16*
X161210000Y-85540000D03*
D15*
X148000000Y-94000000D03*
D16*
X150540000Y-94000000D03*
D13*
X148000000Y-62000000D03*
D14*
X150540000Y-62000000D03*
X153080000Y-62000000D03*
D17*
X123040000Y-76530000D03*
X112880000Y-76530000D03*
X112890000Y-79910000D03*
X123050000Y-79910000D03*
X112890000Y-83440000D03*
X123050000Y-83440000D03*
X119410000Y-71730000D03*
X129570000Y-71730000D03*
X119390000Y-67710000D03*
X129550000Y-67710000D03*
X101530000Y-71760000D03*
X111690000Y-71760000D03*
X112890000Y-87380000D03*
X123050000Y-87380000D03*
X112890000Y-90990000D03*
X123050000Y-90990000D03*
X140230000Y-76510000D03*
X150390000Y-76510000D03*
X150380000Y-80030000D03*
X140220000Y-80030000D03*
X150380000Y-83620000D03*
X140220000Y-83620000D03*
X143510000Y-71720000D03*
X133350000Y-71720000D03*
X143460000Y-67750000D03*
X133300000Y-67750000D03*
X161400000Y-71670000D03*
X151240000Y-71670000D03*
X150380000Y-87310000D03*
X140220000Y-87310000D03*
X150390000Y-90940000D03*
X140230000Y-90940000D03*
D18*
X127940000Y-77350000D03*
X127940000Y-79890000D03*
X127940000Y-82430000D03*
X127940000Y-84970000D03*
X135560000Y-84970000D03*
X135560000Y-82430000D03*
X135560000Y-79890000D03*
X135560000Y-77350000D03*
M02*
