%FSLAX45Y45*%
G04 Gerber Fmt 4.5, Leading zero omitted, Abs format (unit mm)*
G04 Created by KiCad (PCBNEW 4.0.7) date Sunday 08 October 2017 21:13:02*
%MOMM*%
%LPD*%
G01*
G04 APERTURE LIST*
%ADD10C,0.127000*%
%ADD11C,0.150000*%
%ADD12C,0.200000*%
%ADD13C,0.300000*%
G04 APERTURE END LIST*
D10*
D11*
X9900000Y-9700000D02*
X9900000Y-5800000D01*
X16400000Y-9700000D02*
X9900000Y-9700000D01*
X16400000Y-5800000D02*
X16400000Y-9700000D01*
X9900000Y-5800000D02*
X16400000Y-5800000D01*
D12*
X10425000Y-7701000D02*
X10505000Y-7781000D01*
X10505000Y-7701000D02*
X10425000Y-7781000D01*
X10425000Y-7951000D02*
X10505000Y-8031000D01*
X10505000Y-7951000D02*
X10425000Y-8031000D01*
X10431000Y-8806000D02*
X10511000Y-8886000D01*
X10511000Y-8806000D02*
X10431000Y-8886000D01*
X10431000Y-9056000D02*
X10511000Y-9136000D01*
X10511000Y-9056000D02*
X10431000Y-9136000D01*
X10629000Y-6742000D02*
X10709000Y-6822000D01*
X10709000Y-6742000D02*
X10629000Y-6822000D01*
X11129000Y-6742000D02*
X11209000Y-6822000D01*
X11209000Y-6742000D02*
X11129000Y-6822000D01*
X11516000Y-6615000D02*
X11596000Y-6695000D01*
X11596000Y-6615000D02*
X11516000Y-6695000D01*
X11516000Y-7115000D02*
X11596000Y-7195000D01*
X11596000Y-7115000D02*
X11516000Y-7195000D01*
X12754000Y-7695000D02*
X12834000Y-7775000D01*
X12834000Y-7695000D02*
X12754000Y-7775000D01*
X12754000Y-7949000D02*
X12834000Y-8029000D01*
X12834000Y-7949000D02*
X12754000Y-8029000D01*
X12754000Y-8203000D02*
X12834000Y-8283000D01*
X12834000Y-8203000D02*
X12754000Y-8283000D01*
X12754000Y-8457000D02*
X12834000Y-8537000D01*
X12834000Y-8457000D02*
X12754000Y-8537000D01*
X12796000Y-9117000D02*
X12876000Y-9197000D01*
X12876000Y-9117000D02*
X12796000Y-9197000D01*
X12796000Y-9367000D02*
X12876000Y-9447000D01*
X12876000Y-9367000D02*
X12796000Y-9447000D01*
X13424000Y-9119000D02*
X13504000Y-9199000D01*
X13504000Y-9119000D02*
X13424000Y-9199000D01*
X13424000Y-9369000D02*
X13504000Y-9449000D01*
X13504000Y-9369000D02*
X13424000Y-9449000D01*
X13516000Y-7695000D02*
X13596000Y-7775000D01*
X13596000Y-7695000D02*
X13516000Y-7775000D01*
X13516000Y-7949000D02*
X13596000Y-8029000D01*
X13596000Y-7949000D02*
X13516000Y-8029000D01*
X13516000Y-8203000D02*
X13596000Y-8283000D01*
X13596000Y-8203000D02*
X13516000Y-8283000D01*
X13516000Y-8457000D02*
X13596000Y-8537000D01*
X13596000Y-8457000D02*
X13516000Y-8537000D01*
X14723000Y-6604000D02*
X14803000Y-6684000D01*
X14803000Y-6604000D02*
X14723000Y-6684000D01*
X14723000Y-7104000D02*
X14803000Y-7184000D01*
X14803000Y-7104000D02*
X14723000Y-7184000D01*
X15125000Y-6726000D02*
X15205000Y-6806000D01*
X15205000Y-6726000D02*
X15125000Y-6806000D01*
X15625000Y-6726000D02*
X15705000Y-6806000D01*
X15705000Y-6726000D02*
X15625000Y-6806000D01*
X15830000Y-7711000D02*
X15910000Y-7791000D01*
X15910000Y-7711000D02*
X15830000Y-7791000D01*
X15830000Y-7961000D02*
X15910000Y-8041000D01*
X15910000Y-7961000D02*
X15830000Y-8041000D01*
X15836000Y-8830000D02*
X15916000Y-8910000D01*
X15916000Y-8830000D02*
X15836000Y-8910000D01*
X15836000Y-9080000D02*
X15916000Y-9160000D01*
X15916000Y-9080000D02*
X15836000Y-9160000D01*
X10203038Y-7176000D02*
G75*
G03X10203038Y-7176000I-50038J0D01*
G01*
X11219038Y-7176000D02*
G75*
G03X11219038Y-7176000I-50038J0D01*
G01*
X11338038Y-7653000D02*
G75*
G03X11338038Y-7653000I-50038J0D01*
G01*
X11339038Y-7991000D02*
G75*
G03X11339038Y-7991000I-50038J0D01*
G01*
X11339038Y-8344000D02*
G75*
G03X11339038Y-8344000I-50038J0D01*
G01*
X11339038Y-8738000D02*
G75*
G03X11339038Y-8738000I-50038J0D01*
G01*
X11339038Y-9099000D02*
G75*
G03X11339038Y-9099000I-50038J0D01*
G01*
X11989038Y-6771000D02*
G75*
G03X11989038Y-6771000I-50038J0D01*
G01*
X11991038Y-7173000D02*
G75*
G03X11991038Y-7173000I-50038J0D01*
G01*
X12354038Y-7653000D02*
G75*
G03X12354038Y-7653000I-50038J0D01*
G01*
X12355038Y-7991000D02*
G75*
G03X12355038Y-7991000I-50038J0D01*
G01*
X12355038Y-8344000D02*
G75*
G03X12355038Y-8344000I-50038J0D01*
G01*
X12355038Y-8738000D02*
G75*
G03X12355038Y-8738000I-50038J0D01*
G01*
X12355038Y-9099000D02*
G75*
G03X12355038Y-9099000I-50038J0D01*
G01*
X13005038Y-6771000D02*
G75*
G03X13005038Y-6771000I-50038J0D01*
G01*
X13007038Y-7173000D02*
G75*
G03X13007038Y-7173000I-50038J0D01*
G01*
X13380038Y-6775000D02*
G75*
G03X13380038Y-6775000I-50038J0D01*
G01*
X13385038Y-7172000D02*
G75*
G03X13385038Y-7172000I-50038J0D01*
G01*
X14072038Y-8003000D02*
G75*
G03X14072038Y-8003000I-50038J0D01*
G01*
X14072038Y-8362000D02*
G75*
G03X14072038Y-8362000I-50038J0D01*
G01*
X14072038Y-8731000D02*
G75*
G03X14072038Y-8731000I-50038J0D01*
G01*
X14073038Y-7651000D02*
G75*
G03X14073038Y-7651000I-50038J0D01*
G01*
X14073038Y-9094000D02*
G75*
G03X14073038Y-9094000I-50038J0D01*
G01*
X14396038Y-6775000D02*
G75*
G03X14396038Y-6775000I-50038J0D01*
G01*
X14401038Y-7172000D02*
G75*
G03X14401038Y-7172000I-50038J0D01*
G01*
X15088038Y-8003000D02*
G75*
G03X15088038Y-8003000I-50038J0D01*
G01*
X15088038Y-8362000D02*
G75*
G03X15088038Y-8362000I-50038J0D01*
G01*
X15088038Y-8731000D02*
G75*
G03X15088038Y-8731000I-50038J0D01*
G01*
X15089038Y-7651000D02*
G75*
G03X15089038Y-7651000I-50038J0D01*
G01*
X15089038Y-9094000D02*
G75*
G03X15089038Y-9094000I-50038J0D01*
G01*
X15174038Y-7167000D02*
G75*
G03X15174038Y-7167000I-50038J0D01*
G01*
X16190038Y-7167000D02*
G75*
G03X16190038Y-7167000I-50038J0D01*
G01*
X10181000Y-8249200D02*
X10181000Y-8350800D01*
X10130200Y-8300000D02*
X10231800Y-8300000D01*
X10181000Y-8503200D02*
X10181000Y-8604800D01*
X10130200Y-8554000D02*
X10231800Y-8554000D01*
X10992000Y-6149200D02*
X10992000Y-6250800D01*
X10941200Y-6200000D02*
X11042800Y-6200000D01*
X11246000Y-6149200D02*
X11246000Y-6250800D01*
X11195200Y-6200000D02*
X11296800Y-6200000D01*
X11246000Y-9349200D02*
X11246000Y-9450800D01*
X11195200Y-9400000D02*
X11296800Y-9400000D01*
X11500000Y-6149200D02*
X11500000Y-6250800D01*
X11449200Y-6200000D02*
X11550800Y-6200000D01*
X11500000Y-9349200D02*
X11500000Y-9450800D01*
X11449200Y-9400000D02*
X11550800Y-9400000D01*
X12846000Y-6149200D02*
X12846000Y-6250800D01*
X12795200Y-6200000D02*
X12896800Y-6200000D01*
X13100000Y-6149200D02*
X13100000Y-6250800D01*
X13049200Y-6200000D02*
X13150800Y-6200000D01*
X13354000Y-6149200D02*
X13354000Y-6250800D01*
X13303200Y-6200000D02*
X13404800Y-6200000D01*
X14800000Y-6149200D02*
X14800000Y-6250800D01*
X14749200Y-6200000D02*
X14850800Y-6200000D01*
X14800000Y-9349200D02*
X14800000Y-9450800D01*
X14749200Y-9400000D02*
X14850800Y-9400000D01*
X15054000Y-6149200D02*
X15054000Y-6250800D01*
X15003200Y-6200000D02*
X15104800Y-6200000D01*
X15054000Y-9349200D02*
X15054000Y-9450800D01*
X15003200Y-9400000D02*
X15104800Y-9400000D01*
X15308000Y-6149200D02*
X15308000Y-6250800D01*
X15257200Y-6200000D02*
X15358800Y-6200000D01*
X16121000Y-8249200D02*
X16121000Y-8350800D01*
X16070200Y-8300000D02*
X16171800Y-8300000D01*
X16121000Y-8503200D02*
X16121000Y-8604800D01*
X16070200Y-8554000D02*
X16171800Y-8554000D01*
D13*
X10163929Y-10173214D02*
X10163929Y-9873214D01*
X10235357Y-9873214D01*
X10278214Y-9887500D01*
X10306786Y-9916072D01*
X10321071Y-9944643D01*
X10335357Y-10001786D01*
X10335357Y-10044643D01*
X10321071Y-10101786D01*
X10306786Y-10130357D01*
X10278214Y-10158929D01*
X10235357Y-10173214D01*
X10163929Y-10173214D01*
X10463929Y-10173214D02*
X10463929Y-9973214D01*
X10463929Y-10030357D02*
X10478214Y-10001786D01*
X10492500Y-9987500D01*
X10521071Y-9973214D01*
X10549643Y-9973214D01*
X10649643Y-10173214D02*
X10649643Y-9973214D01*
X10649643Y-9873214D02*
X10635357Y-9887500D01*
X10649643Y-9901786D01*
X10663929Y-9887500D01*
X10649643Y-9873214D01*
X10649643Y-9901786D01*
X10835357Y-10173214D02*
X10806786Y-10158929D01*
X10792500Y-10130357D01*
X10792500Y-9873214D01*
X10992500Y-10173214D02*
X10963929Y-10158929D01*
X10949643Y-10130357D01*
X10949643Y-9873214D01*
X11335357Y-10173214D02*
X11335357Y-9873214D01*
X11435357Y-10087500D01*
X11535357Y-9873214D01*
X11535357Y-10173214D01*
X11806786Y-10173214D02*
X11806786Y-10016072D01*
X11792500Y-9987500D01*
X11763928Y-9973214D01*
X11706786Y-9973214D01*
X11678214Y-9987500D01*
X11806786Y-10158929D02*
X11778214Y-10173214D01*
X11706786Y-10173214D01*
X11678214Y-10158929D01*
X11663928Y-10130357D01*
X11663928Y-10101786D01*
X11678214Y-10073214D01*
X11706786Y-10058929D01*
X11778214Y-10058929D01*
X11806786Y-10044643D01*
X11949643Y-9973214D02*
X11949643Y-10273214D01*
X11949643Y-9987500D02*
X11978214Y-9973214D01*
X12035357Y-9973214D01*
X12063928Y-9987500D01*
X12078214Y-10001786D01*
X12092500Y-10030357D01*
X12092500Y-10116072D01*
X12078214Y-10144643D01*
X12063928Y-10158929D01*
X12035357Y-10173214D01*
X11978214Y-10173214D01*
X11949643Y-10158929D01*
X12221071Y-10144643D02*
X12235357Y-10158929D01*
X12221071Y-10173214D01*
X12206786Y-10158929D01*
X12221071Y-10144643D01*
X12221071Y-10173214D01*
X12221071Y-9987500D02*
X12235357Y-10001786D01*
X12221071Y-10016072D01*
X12206786Y-10001786D01*
X12221071Y-9987500D01*
X12221071Y-10016072D01*
X9812500Y-10627500D02*
X9892500Y-10707500D01*
X9892500Y-10627500D02*
X9812500Y-10707500D01*
X10221071Y-10503214D02*
X10249643Y-10503214D01*
X10278214Y-10517500D01*
X10292500Y-10531786D01*
X10306786Y-10560357D01*
X10321071Y-10617500D01*
X10321071Y-10688929D01*
X10306786Y-10746072D01*
X10292500Y-10774643D01*
X10278214Y-10788929D01*
X10249643Y-10803214D01*
X10221071Y-10803214D01*
X10192500Y-10788929D01*
X10178214Y-10774643D01*
X10163929Y-10746072D01*
X10149643Y-10688929D01*
X10149643Y-10617500D01*
X10163929Y-10560357D01*
X10178214Y-10531786D01*
X10192500Y-10517500D01*
X10221071Y-10503214D01*
X10449643Y-10774643D02*
X10463929Y-10788929D01*
X10449643Y-10803214D01*
X10435357Y-10788929D01*
X10449643Y-10774643D01*
X10449643Y-10803214D01*
X10635357Y-10631786D02*
X10606786Y-10617500D01*
X10592500Y-10603214D01*
X10578214Y-10574643D01*
X10578214Y-10560357D01*
X10592500Y-10531786D01*
X10606786Y-10517500D01*
X10635357Y-10503214D01*
X10692500Y-10503214D01*
X10721071Y-10517500D01*
X10735357Y-10531786D01*
X10749643Y-10560357D01*
X10749643Y-10574643D01*
X10735357Y-10603214D01*
X10721071Y-10617500D01*
X10692500Y-10631786D01*
X10635357Y-10631786D01*
X10606786Y-10646072D01*
X10592500Y-10660357D01*
X10578214Y-10688929D01*
X10578214Y-10746072D01*
X10592500Y-10774643D01*
X10606786Y-10788929D01*
X10635357Y-10803214D01*
X10692500Y-10803214D01*
X10721071Y-10788929D01*
X10735357Y-10774643D01*
X10749643Y-10746072D01*
X10749643Y-10688929D01*
X10735357Y-10660357D01*
X10721071Y-10646072D01*
X10692500Y-10631786D01*
X10935357Y-10503214D02*
X10963929Y-10503214D01*
X10992500Y-10517500D01*
X11006786Y-10531786D01*
X11021071Y-10560357D01*
X11035357Y-10617500D01*
X11035357Y-10688929D01*
X11021071Y-10746072D01*
X11006786Y-10774643D01*
X10992500Y-10788929D01*
X10963929Y-10803214D01*
X10935357Y-10803214D01*
X10906786Y-10788929D01*
X10892500Y-10774643D01*
X10878214Y-10746072D01*
X10863929Y-10688929D01*
X10863929Y-10617500D01*
X10878214Y-10560357D01*
X10892500Y-10531786D01*
X10906786Y-10517500D01*
X10935357Y-10503214D01*
X11163929Y-10803214D02*
X11163929Y-10603214D01*
X11163929Y-10631786D02*
X11178214Y-10617500D01*
X11206786Y-10603214D01*
X11249643Y-10603214D01*
X11278214Y-10617500D01*
X11292500Y-10646072D01*
X11292500Y-10803214D01*
X11292500Y-10646072D02*
X11306786Y-10617500D01*
X11335357Y-10603214D01*
X11378214Y-10603214D01*
X11406786Y-10617500D01*
X11421071Y-10646072D01*
X11421071Y-10803214D01*
X11563928Y-10803214D02*
X11563928Y-10603214D01*
X11563928Y-10631786D02*
X11578214Y-10617500D01*
X11606786Y-10603214D01*
X11649643Y-10603214D01*
X11678214Y-10617500D01*
X11692500Y-10646072D01*
X11692500Y-10803214D01*
X11692500Y-10646072D02*
X11706786Y-10617500D01*
X11735357Y-10603214D01*
X11778214Y-10603214D01*
X11806786Y-10617500D01*
X11821071Y-10646072D01*
X11821071Y-10803214D01*
X12406786Y-10488929D02*
X12149643Y-10874643D01*
X12792500Y-10503214D02*
X12821071Y-10503214D01*
X12849643Y-10517500D01*
X12863928Y-10531786D01*
X12878214Y-10560357D01*
X12892500Y-10617500D01*
X12892500Y-10688929D01*
X12878214Y-10746072D01*
X12863928Y-10774643D01*
X12849643Y-10788929D01*
X12821071Y-10803214D01*
X12792500Y-10803214D01*
X12763928Y-10788929D01*
X12749643Y-10774643D01*
X12735357Y-10746072D01*
X12721071Y-10688929D01*
X12721071Y-10617500D01*
X12735357Y-10560357D01*
X12749643Y-10531786D01*
X12763928Y-10517500D01*
X12792500Y-10503214D01*
X13021071Y-10774643D02*
X13035357Y-10788929D01*
X13021071Y-10803214D01*
X13006786Y-10788929D01*
X13021071Y-10774643D01*
X13021071Y-10803214D01*
X13221071Y-10503214D02*
X13249643Y-10503214D01*
X13278214Y-10517500D01*
X13292500Y-10531786D01*
X13306785Y-10560357D01*
X13321071Y-10617500D01*
X13321071Y-10688929D01*
X13306785Y-10746072D01*
X13292500Y-10774643D01*
X13278214Y-10788929D01*
X13249643Y-10803214D01*
X13221071Y-10803214D01*
X13192500Y-10788929D01*
X13178214Y-10774643D01*
X13163928Y-10746072D01*
X13149643Y-10688929D01*
X13149643Y-10617500D01*
X13163928Y-10560357D01*
X13178214Y-10531786D01*
X13192500Y-10517500D01*
X13221071Y-10503214D01*
X13421071Y-10503214D02*
X13606785Y-10503214D01*
X13506785Y-10617500D01*
X13549643Y-10617500D01*
X13578214Y-10631786D01*
X13592500Y-10646072D01*
X13606785Y-10674643D01*
X13606785Y-10746072D01*
X13592500Y-10774643D01*
X13578214Y-10788929D01*
X13549643Y-10803214D01*
X13463928Y-10803214D01*
X13435357Y-10788929D01*
X13421071Y-10774643D01*
X13892500Y-10803214D02*
X13721071Y-10803214D01*
X13806785Y-10803214D02*
X13806785Y-10503214D01*
X13778214Y-10546072D01*
X13749643Y-10574643D01*
X13721071Y-10588929D01*
X14006786Y-10503214D02*
X14006786Y-10560357D01*
X14121071Y-10503214D02*
X14121071Y-10560357D01*
X14563928Y-10917500D02*
X14549643Y-10903214D01*
X14521071Y-10860357D01*
X14506785Y-10831786D01*
X14492500Y-10788929D01*
X14478214Y-10717500D01*
X14478214Y-10660357D01*
X14492500Y-10588929D01*
X14506785Y-10546072D01*
X14521071Y-10517500D01*
X14549643Y-10474643D01*
X14563928Y-10460357D01*
X14663928Y-10531786D02*
X14678214Y-10517500D01*
X14706785Y-10503214D01*
X14778214Y-10503214D01*
X14806785Y-10517500D01*
X14821071Y-10531786D01*
X14835357Y-10560357D01*
X14835357Y-10588929D01*
X14821071Y-10631786D01*
X14649643Y-10803214D01*
X14835357Y-10803214D01*
X15006785Y-10631786D02*
X14978214Y-10617500D01*
X14963928Y-10603214D01*
X14949643Y-10574643D01*
X14949643Y-10560357D01*
X14963928Y-10531786D01*
X14978214Y-10517500D01*
X15006785Y-10503214D01*
X15063928Y-10503214D01*
X15092500Y-10517500D01*
X15106785Y-10531786D01*
X15121071Y-10560357D01*
X15121071Y-10574643D01*
X15106785Y-10603214D01*
X15092500Y-10617500D01*
X15063928Y-10631786D01*
X15006785Y-10631786D01*
X14978214Y-10646072D01*
X14963928Y-10660357D01*
X14949643Y-10688929D01*
X14949643Y-10746072D01*
X14963928Y-10774643D01*
X14978214Y-10788929D01*
X15006785Y-10803214D01*
X15063928Y-10803214D01*
X15092500Y-10788929D01*
X15106785Y-10774643D01*
X15121071Y-10746072D01*
X15121071Y-10688929D01*
X15106785Y-10660357D01*
X15092500Y-10646072D01*
X15063928Y-10631786D01*
X15478214Y-10803214D02*
X15478214Y-10503214D01*
X15606785Y-10803214D02*
X15606785Y-10646072D01*
X15592500Y-10617500D01*
X15563928Y-10603214D01*
X15521071Y-10603214D01*
X15492500Y-10617500D01*
X15478214Y-10631786D01*
X15792500Y-10803214D02*
X15763928Y-10788929D01*
X15749643Y-10774643D01*
X15735357Y-10746072D01*
X15735357Y-10660357D01*
X15749643Y-10631786D01*
X15763928Y-10617500D01*
X15792500Y-10603214D01*
X15835357Y-10603214D01*
X15863928Y-10617500D01*
X15878214Y-10631786D01*
X15892500Y-10660357D01*
X15892500Y-10746072D01*
X15878214Y-10774643D01*
X15863928Y-10788929D01*
X15835357Y-10803214D01*
X15792500Y-10803214D01*
X16063928Y-10803214D02*
X16035357Y-10788929D01*
X16021071Y-10760357D01*
X16021071Y-10503214D01*
X16292500Y-10788929D02*
X16263928Y-10803214D01*
X16206786Y-10803214D01*
X16178214Y-10788929D01*
X16163928Y-10760357D01*
X16163928Y-10646072D01*
X16178214Y-10617500D01*
X16206786Y-10603214D01*
X16263928Y-10603214D01*
X16292500Y-10617500D01*
X16306786Y-10646072D01*
X16306786Y-10674643D01*
X16163928Y-10703214D01*
X16421071Y-10788929D02*
X16449643Y-10803214D01*
X16506786Y-10803214D01*
X16535357Y-10788929D01*
X16549643Y-10760357D01*
X16549643Y-10746072D01*
X16535357Y-10717500D01*
X16506786Y-10703214D01*
X16463928Y-10703214D01*
X16435357Y-10688929D01*
X16421071Y-10660357D01*
X16421071Y-10646072D01*
X16435357Y-10617500D01*
X16463928Y-10603214D01*
X16506786Y-10603214D01*
X16535357Y-10617500D01*
X16649643Y-10917500D02*
X16663928Y-10903214D01*
X16692500Y-10860357D01*
X16706786Y-10831786D01*
X16721071Y-10788929D01*
X16735357Y-10717500D01*
X16735357Y-10660357D01*
X16721071Y-10588929D01*
X16706786Y-10546072D01*
X16692500Y-10517500D01*
X16663928Y-10474643D01*
X16649643Y-10460357D01*
X9892500Y-11063500D02*
G75*
G03X9892500Y-11063500I-50038J0D01*
G01*
X10321071Y-11199214D02*
X10149643Y-11199214D01*
X10235357Y-11199214D02*
X10235357Y-10899214D01*
X10206786Y-10942072D01*
X10178214Y-10970643D01*
X10149643Y-10984929D01*
X10449643Y-11170643D02*
X10463929Y-11184929D01*
X10449643Y-11199214D01*
X10435357Y-11184929D01*
X10449643Y-11170643D01*
X10449643Y-11199214D01*
X10649643Y-10899214D02*
X10678214Y-10899214D01*
X10706786Y-10913500D01*
X10721071Y-10927786D01*
X10735357Y-10956357D01*
X10749643Y-11013500D01*
X10749643Y-11084929D01*
X10735357Y-11142072D01*
X10721071Y-11170643D01*
X10706786Y-11184929D01*
X10678214Y-11199214D01*
X10649643Y-11199214D01*
X10621071Y-11184929D01*
X10606786Y-11170643D01*
X10592500Y-11142072D01*
X10578214Y-11084929D01*
X10578214Y-11013500D01*
X10592500Y-10956357D01*
X10606786Y-10927786D01*
X10621071Y-10913500D01*
X10649643Y-10899214D01*
X10935357Y-10899214D02*
X10963929Y-10899214D01*
X10992500Y-10913500D01*
X11006786Y-10927786D01*
X11021071Y-10956357D01*
X11035357Y-11013500D01*
X11035357Y-11084929D01*
X11021071Y-11142072D01*
X11006786Y-11170643D01*
X10992500Y-11184929D01*
X10963929Y-11199214D01*
X10935357Y-11199214D01*
X10906786Y-11184929D01*
X10892500Y-11170643D01*
X10878214Y-11142072D01*
X10863929Y-11084929D01*
X10863929Y-11013500D01*
X10878214Y-10956357D01*
X10892500Y-10927786D01*
X10906786Y-10913500D01*
X10935357Y-10899214D01*
X11163929Y-11199214D02*
X11163929Y-10999214D01*
X11163929Y-11027786D02*
X11178214Y-11013500D01*
X11206786Y-10999214D01*
X11249643Y-10999214D01*
X11278214Y-11013500D01*
X11292500Y-11042072D01*
X11292500Y-11199214D01*
X11292500Y-11042072D02*
X11306786Y-11013500D01*
X11335357Y-10999214D01*
X11378214Y-10999214D01*
X11406786Y-11013500D01*
X11421071Y-11042072D01*
X11421071Y-11199214D01*
X11563928Y-11199214D02*
X11563928Y-10999214D01*
X11563928Y-11027786D02*
X11578214Y-11013500D01*
X11606786Y-10999214D01*
X11649643Y-10999214D01*
X11678214Y-11013500D01*
X11692500Y-11042072D01*
X11692500Y-11199214D01*
X11692500Y-11042072D02*
X11706786Y-11013500D01*
X11735357Y-10999214D01*
X11778214Y-10999214D01*
X11806786Y-11013500D01*
X11821071Y-11042072D01*
X11821071Y-11199214D01*
X12406786Y-10884929D02*
X12149643Y-11270643D01*
X12792500Y-10899214D02*
X12821071Y-10899214D01*
X12849643Y-10913500D01*
X12863928Y-10927786D01*
X12878214Y-10956357D01*
X12892500Y-11013500D01*
X12892500Y-11084929D01*
X12878214Y-11142072D01*
X12863928Y-11170643D01*
X12849643Y-11184929D01*
X12821071Y-11199214D01*
X12792500Y-11199214D01*
X12763928Y-11184929D01*
X12749643Y-11170643D01*
X12735357Y-11142072D01*
X12721071Y-11084929D01*
X12721071Y-11013500D01*
X12735357Y-10956357D01*
X12749643Y-10927786D01*
X12763928Y-10913500D01*
X12792500Y-10899214D01*
X13021071Y-11170643D02*
X13035357Y-11184929D01*
X13021071Y-11199214D01*
X13006786Y-11184929D01*
X13021071Y-11170643D01*
X13021071Y-11199214D01*
X13221071Y-10899214D02*
X13249643Y-10899214D01*
X13278214Y-10913500D01*
X13292500Y-10927786D01*
X13306785Y-10956357D01*
X13321071Y-11013500D01*
X13321071Y-11084929D01*
X13306785Y-11142072D01*
X13292500Y-11170643D01*
X13278214Y-11184929D01*
X13249643Y-11199214D01*
X13221071Y-11199214D01*
X13192500Y-11184929D01*
X13178214Y-11170643D01*
X13163928Y-11142072D01*
X13149643Y-11084929D01*
X13149643Y-11013500D01*
X13163928Y-10956357D01*
X13178214Y-10927786D01*
X13192500Y-10913500D01*
X13221071Y-10899214D01*
X13421071Y-10899214D02*
X13606785Y-10899214D01*
X13506785Y-11013500D01*
X13549643Y-11013500D01*
X13578214Y-11027786D01*
X13592500Y-11042072D01*
X13606785Y-11070643D01*
X13606785Y-11142072D01*
X13592500Y-11170643D01*
X13578214Y-11184929D01*
X13549643Y-11199214D01*
X13463928Y-11199214D01*
X13435357Y-11184929D01*
X13421071Y-11170643D01*
X13749643Y-11199214D02*
X13806785Y-11199214D01*
X13835357Y-11184929D01*
X13849643Y-11170643D01*
X13878214Y-11127786D01*
X13892500Y-11070643D01*
X13892500Y-10956357D01*
X13878214Y-10927786D01*
X13863928Y-10913500D01*
X13835357Y-10899214D01*
X13778214Y-10899214D01*
X13749643Y-10913500D01*
X13735357Y-10927786D01*
X13721071Y-10956357D01*
X13721071Y-11027786D01*
X13735357Y-11056357D01*
X13749643Y-11070643D01*
X13778214Y-11084929D01*
X13835357Y-11084929D01*
X13863928Y-11070643D01*
X13878214Y-11056357D01*
X13892500Y-11027786D01*
X14006786Y-10899214D02*
X14006786Y-10956357D01*
X14121071Y-10899214D02*
X14121071Y-10956357D01*
X14563928Y-11313500D02*
X14549643Y-11299214D01*
X14521071Y-11256357D01*
X14506785Y-11227786D01*
X14492500Y-11184929D01*
X14478214Y-11113500D01*
X14478214Y-11056357D01*
X14492500Y-10984929D01*
X14506785Y-10942072D01*
X14521071Y-10913500D01*
X14549643Y-10870643D01*
X14563928Y-10856357D01*
X14649643Y-10899214D02*
X14835357Y-10899214D01*
X14735357Y-11013500D01*
X14778214Y-11013500D01*
X14806785Y-11027786D01*
X14821071Y-11042072D01*
X14835357Y-11070643D01*
X14835357Y-11142072D01*
X14821071Y-11170643D01*
X14806785Y-11184929D01*
X14778214Y-11199214D01*
X14692500Y-11199214D01*
X14663928Y-11184929D01*
X14649643Y-11170643D01*
X14949643Y-10927786D02*
X14963928Y-10913500D01*
X14992500Y-10899214D01*
X15063928Y-10899214D01*
X15092500Y-10913500D01*
X15106785Y-10927786D01*
X15121071Y-10956357D01*
X15121071Y-10984929D01*
X15106785Y-11027786D01*
X14935357Y-11199214D01*
X15121071Y-11199214D01*
X15478214Y-11199214D02*
X15478214Y-10899214D01*
X15606785Y-11199214D02*
X15606785Y-11042072D01*
X15592500Y-11013500D01*
X15563928Y-10999214D01*
X15521071Y-10999214D01*
X15492500Y-11013500D01*
X15478214Y-11027786D01*
X15792500Y-11199214D02*
X15763928Y-11184929D01*
X15749643Y-11170643D01*
X15735357Y-11142072D01*
X15735357Y-11056357D01*
X15749643Y-11027786D01*
X15763928Y-11013500D01*
X15792500Y-10999214D01*
X15835357Y-10999214D01*
X15863928Y-11013500D01*
X15878214Y-11027786D01*
X15892500Y-11056357D01*
X15892500Y-11142072D01*
X15878214Y-11170643D01*
X15863928Y-11184929D01*
X15835357Y-11199214D01*
X15792500Y-11199214D01*
X16063928Y-11199214D02*
X16035357Y-11184929D01*
X16021071Y-11156357D01*
X16021071Y-10899214D01*
X16292500Y-11184929D02*
X16263928Y-11199214D01*
X16206786Y-11199214D01*
X16178214Y-11184929D01*
X16163928Y-11156357D01*
X16163928Y-11042072D01*
X16178214Y-11013500D01*
X16206786Y-10999214D01*
X16263928Y-10999214D01*
X16292500Y-11013500D01*
X16306786Y-11042072D01*
X16306786Y-11070643D01*
X16163928Y-11099214D01*
X16421071Y-11184929D02*
X16449643Y-11199214D01*
X16506786Y-11199214D01*
X16535357Y-11184929D01*
X16549643Y-11156357D01*
X16549643Y-11142072D01*
X16535357Y-11113500D01*
X16506786Y-11099214D01*
X16463928Y-11099214D01*
X16435357Y-11084929D01*
X16421071Y-11056357D01*
X16421071Y-11042072D01*
X16435357Y-11013500D01*
X16463928Y-10999214D01*
X16506786Y-10999214D01*
X16535357Y-11013500D01*
X16649643Y-11313500D02*
X16663928Y-11299214D01*
X16692500Y-11256357D01*
X16706786Y-11227786D01*
X16721071Y-11184929D01*
X16735357Y-11113500D01*
X16735357Y-11056357D01*
X16721071Y-10984929D01*
X16706786Y-10942072D01*
X16692500Y-10913500D01*
X16663928Y-10870643D01*
X16649643Y-10856357D01*
X9841700Y-11408700D02*
X9841700Y-11510300D01*
X9790900Y-11459500D02*
X9892500Y-11459500D01*
X10321071Y-11595214D02*
X10149643Y-11595214D01*
X10235357Y-11595214D02*
X10235357Y-11295214D01*
X10206786Y-11338071D01*
X10178214Y-11366643D01*
X10149643Y-11380929D01*
X10449643Y-11566643D02*
X10463929Y-11580929D01*
X10449643Y-11595214D01*
X10435357Y-11580929D01*
X10449643Y-11566643D01*
X10449643Y-11595214D01*
X10649643Y-11295214D02*
X10678214Y-11295214D01*
X10706786Y-11309500D01*
X10721071Y-11323786D01*
X10735357Y-11352357D01*
X10749643Y-11409500D01*
X10749643Y-11480929D01*
X10735357Y-11538071D01*
X10721071Y-11566643D01*
X10706786Y-11580929D01*
X10678214Y-11595214D01*
X10649643Y-11595214D01*
X10621071Y-11580929D01*
X10606786Y-11566643D01*
X10592500Y-11538071D01*
X10578214Y-11480929D01*
X10578214Y-11409500D01*
X10592500Y-11352357D01*
X10606786Y-11323786D01*
X10621071Y-11309500D01*
X10649643Y-11295214D01*
X10863929Y-11323786D02*
X10878214Y-11309500D01*
X10906786Y-11295214D01*
X10978214Y-11295214D01*
X11006786Y-11309500D01*
X11021071Y-11323786D01*
X11035357Y-11352357D01*
X11035357Y-11380929D01*
X11021071Y-11423786D01*
X10849643Y-11595214D01*
X11035357Y-11595214D01*
X11163929Y-11595214D02*
X11163929Y-11395214D01*
X11163929Y-11423786D02*
X11178214Y-11409500D01*
X11206786Y-11395214D01*
X11249643Y-11395214D01*
X11278214Y-11409500D01*
X11292500Y-11438071D01*
X11292500Y-11595214D01*
X11292500Y-11438071D02*
X11306786Y-11409500D01*
X11335357Y-11395214D01*
X11378214Y-11395214D01*
X11406786Y-11409500D01*
X11421071Y-11438071D01*
X11421071Y-11595214D01*
X11563928Y-11595214D02*
X11563928Y-11395214D01*
X11563928Y-11423786D02*
X11578214Y-11409500D01*
X11606786Y-11395214D01*
X11649643Y-11395214D01*
X11678214Y-11409500D01*
X11692500Y-11438071D01*
X11692500Y-11595214D01*
X11692500Y-11438071D02*
X11706786Y-11409500D01*
X11735357Y-11395214D01*
X11778214Y-11395214D01*
X11806786Y-11409500D01*
X11821071Y-11438071D01*
X11821071Y-11595214D01*
X12406786Y-11280929D02*
X12149643Y-11666643D01*
X12792500Y-11295214D02*
X12821071Y-11295214D01*
X12849643Y-11309500D01*
X12863928Y-11323786D01*
X12878214Y-11352357D01*
X12892500Y-11409500D01*
X12892500Y-11480929D01*
X12878214Y-11538071D01*
X12863928Y-11566643D01*
X12849643Y-11580929D01*
X12821071Y-11595214D01*
X12792500Y-11595214D01*
X12763928Y-11580929D01*
X12749643Y-11566643D01*
X12735357Y-11538071D01*
X12721071Y-11480929D01*
X12721071Y-11409500D01*
X12735357Y-11352357D01*
X12749643Y-11323786D01*
X12763928Y-11309500D01*
X12792500Y-11295214D01*
X13021071Y-11566643D02*
X13035357Y-11580929D01*
X13021071Y-11595214D01*
X13006786Y-11580929D01*
X13021071Y-11566643D01*
X13021071Y-11595214D01*
X13221071Y-11295214D02*
X13249643Y-11295214D01*
X13278214Y-11309500D01*
X13292500Y-11323786D01*
X13306785Y-11352357D01*
X13321071Y-11409500D01*
X13321071Y-11480929D01*
X13306785Y-11538071D01*
X13292500Y-11566643D01*
X13278214Y-11580929D01*
X13249643Y-11595214D01*
X13221071Y-11595214D01*
X13192500Y-11580929D01*
X13178214Y-11566643D01*
X13163928Y-11538071D01*
X13149643Y-11480929D01*
X13149643Y-11409500D01*
X13163928Y-11352357D01*
X13178214Y-11323786D01*
X13192500Y-11309500D01*
X13221071Y-11295214D01*
X13578214Y-11395214D02*
X13578214Y-11595214D01*
X13506785Y-11280929D02*
X13435357Y-11495214D01*
X13621071Y-11495214D01*
X13792500Y-11295214D02*
X13821071Y-11295214D01*
X13849643Y-11309500D01*
X13863928Y-11323786D01*
X13878214Y-11352357D01*
X13892500Y-11409500D01*
X13892500Y-11480929D01*
X13878214Y-11538071D01*
X13863928Y-11566643D01*
X13849643Y-11580929D01*
X13821071Y-11595214D01*
X13792500Y-11595214D01*
X13763928Y-11580929D01*
X13749643Y-11566643D01*
X13735357Y-11538071D01*
X13721071Y-11480929D01*
X13721071Y-11409500D01*
X13735357Y-11352357D01*
X13749643Y-11323786D01*
X13763928Y-11309500D01*
X13792500Y-11295214D01*
X14006786Y-11295214D02*
X14006786Y-11352357D01*
X14121071Y-11295214D02*
X14121071Y-11352357D01*
X14563928Y-11709500D02*
X14549643Y-11695214D01*
X14521071Y-11652357D01*
X14506785Y-11623786D01*
X14492500Y-11580929D01*
X14478214Y-11509500D01*
X14478214Y-11452357D01*
X14492500Y-11380929D01*
X14506785Y-11338071D01*
X14521071Y-11309500D01*
X14549643Y-11266643D01*
X14563928Y-11252357D01*
X14835357Y-11595214D02*
X14663928Y-11595214D01*
X14749643Y-11595214D02*
X14749643Y-11295214D01*
X14721071Y-11338071D01*
X14692500Y-11366643D01*
X14663928Y-11380929D01*
X14935357Y-11295214D02*
X15135357Y-11295214D01*
X15006785Y-11595214D01*
X15478214Y-11595214D02*
X15478214Y-11295214D01*
X15606785Y-11595214D02*
X15606785Y-11438071D01*
X15592500Y-11409500D01*
X15563928Y-11395214D01*
X15521071Y-11395214D01*
X15492500Y-11409500D01*
X15478214Y-11423786D01*
X15792500Y-11595214D02*
X15763928Y-11580929D01*
X15749643Y-11566643D01*
X15735357Y-11538071D01*
X15735357Y-11452357D01*
X15749643Y-11423786D01*
X15763928Y-11409500D01*
X15792500Y-11395214D01*
X15835357Y-11395214D01*
X15863928Y-11409500D01*
X15878214Y-11423786D01*
X15892500Y-11452357D01*
X15892500Y-11538071D01*
X15878214Y-11566643D01*
X15863928Y-11580929D01*
X15835357Y-11595214D01*
X15792500Y-11595214D01*
X16063928Y-11595214D02*
X16035357Y-11580929D01*
X16021071Y-11552357D01*
X16021071Y-11295214D01*
X16292500Y-11580929D02*
X16263928Y-11595214D01*
X16206786Y-11595214D01*
X16178214Y-11580929D01*
X16163928Y-11552357D01*
X16163928Y-11438071D01*
X16178214Y-11409500D01*
X16206786Y-11395214D01*
X16263928Y-11395214D01*
X16292500Y-11409500D01*
X16306786Y-11438071D01*
X16306786Y-11466643D01*
X16163928Y-11495214D01*
X16421071Y-11580929D02*
X16449643Y-11595214D01*
X16506786Y-11595214D01*
X16535357Y-11580929D01*
X16549643Y-11552357D01*
X16549643Y-11538071D01*
X16535357Y-11509500D01*
X16506786Y-11495214D01*
X16463928Y-11495214D01*
X16435357Y-11480929D01*
X16421071Y-11452357D01*
X16421071Y-11438071D01*
X16435357Y-11409500D01*
X16463928Y-11395214D01*
X16506786Y-11395214D01*
X16535357Y-11409500D01*
X16649643Y-11709500D02*
X16663928Y-11695214D01*
X16692500Y-11652357D01*
X16706786Y-11623786D01*
X16721071Y-11580929D01*
X16735357Y-11509500D01*
X16735357Y-11452357D01*
X16721071Y-11380929D01*
X16706786Y-11338071D01*
X16692500Y-11309500D01*
X16663928Y-11266643D01*
X16649643Y-11252357D01*
M02*
