G04 #@! TF.FileFunction,Legend,Bot*
%FSLAX46Y46*%
G04 Gerber Fmt 4.6, Leading zero omitted, Abs format (unit mm)*
G04 Created by KiCad (PCBNEW 4.0.7) date Sunday 08 October 2017 21:23:55*
%MOMM*%
%LPD*%
G01*
G04 APERTURE LIST*
%ADD10C,0.100000*%
%ADD11C,0.150000*%
G04 APERTURE END LIST*
D10*
D11*
X132270000Y-63270000D02*
X127190000Y-63270000D01*
X127190000Y-63270000D02*
X127190000Y-60730000D01*
X127190000Y-60730000D02*
X132270000Y-60730000D01*
X135090000Y-60450000D02*
X133540000Y-60450000D01*
X132270000Y-60730000D02*
X132270000Y-63270000D01*
X133540000Y-63550000D02*
X135090000Y-63550000D01*
X135090000Y-63550000D02*
X135090000Y-60450000D01*
X100540000Y-84270000D02*
X100540000Y-86810000D01*
X100260000Y-81450000D02*
X100260000Y-83000000D01*
X100540000Y-84270000D02*
X103080000Y-84270000D01*
X103360000Y-83000000D02*
X103360000Y-81450000D01*
X103360000Y-81450000D02*
X100260000Y-81450000D01*
X103080000Y-84270000D02*
X103080000Y-86810000D01*
X103080000Y-86810000D02*
X100540000Y-86810000D01*
X113730000Y-92730000D02*
X111190000Y-92730000D01*
X116550000Y-92450000D02*
X115000000Y-92450000D01*
X113730000Y-92730000D02*
X113730000Y-95270000D01*
X115000000Y-95550000D02*
X116550000Y-95550000D01*
X116550000Y-95550000D02*
X116550000Y-92450000D01*
X113730000Y-95270000D02*
X111190000Y-95270000D01*
X111190000Y-95270000D02*
X111190000Y-92730000D01*
X159940000Y-84270000D02*
X159940000Y-86810000D01*
X159660000Y-81450000D02*
X159660000Y-83000000D01*
X159940000Y-84270000D02*
X162480000Y-84270000D01*
X162760000Y-83000000D02*
X162760000Y-81450000D01*
X162760000Y-81450000D02*
X159660000Y-81450000D01*
X162480000Y-84270000D02*
X162480000Y-86810000D01*
X162480000Y-86810000D02*
X159940000Y-86810000D01*
X149270000Y-95270000D02*
X151810000Y-95270000D01*
X146450000Y-95550000D02*
X148000000Y-95550000D01*
X149270000Y-95270000D02*
X149270000Y-92730000D01*
X148000000Y-92450000D02*
X146450000Y-92450000D01*
X146450000Y-92450000D02*
X146450000Y-95550000D01*
X149270000Y-92730000D02*
X151810000Y-92730000D01*
X151810000Y-92730000D02*
X151810000Y-95270000D01*
X139092381Y-61238095D02*
X138092381Y-61238095D01*
X138568571Y-61238095D02*
X138568571Y-61809524D01*
X139092381Y-61809524D02*
X138092381Y-61809524D01*
X139092381Y-62809524D02*
X139092381Y-62238095D01*
X139092381Y-62523809D02*
X138092381Y-62523809D01*
X138235238Y-62428571D01*
X138330476Y-62333333D01*
X138378095Y-62238095D01*
X103048095Y-78352381D02*
X103048095Y-77352381D01*
X103048095Y-77828571D02*
X102476666Y-77828571D01*
X102476666Y-78352381D02*
X102476666Y-77352381D01*
X101476666Y-78352381D02*
X102048095Y-78352381D01*
X101762381Y-78352381D02*
X101762381Y-77352381D01*
X101857619Y-77495238D01*
X101952857Y-77590476D01*
X102048095Y-77638095D01*
X100524285Y-78352381D02*
X101095714Y-78352381D01*
X100810000Y-78352381D02*
X100810000Y-77352381D01*
X100905238Y-77495238D01*
X101000476Y-77590476D01*
X101095714Y-77638095D01*
X120552381Y-92761905D02*
X119552381Y-92761905D01*
X120028571Y-92761905D02*
X120028571Y-93333334D01*
X120552381Y-93333334D02*
X119552381Y-93333334D01*
X120552381Y-94333334D02*
X120552381Y-93761905D01*
X120552381Y-94047619D02*
X119552381Y-94047619D01*
X119695238Y-93952381D01*
X119790476Y-93857143D01*
X119838095Y-93761905D01*
X119647619Y-94714286D02*
X119600000Y-94761905D01*
X119552381Y-94857143D01*
X119552381Y-95095239D01*
X119600000Y-95190477D01*
X119647619Y-95238096D01*
X119742857Y-95285715D01*
X119838095Y-95285715D01*
X119980952Y-95238096D01*
X120552381Y-94666667D01*
X120552381Y-95285715D01*
X162448095Y-78352381D02*
X162448095Y-77352381D01*
X162448095Y-77828571D02*
X161876666Y-77828571D01*
X161876666Y-78352381D02*
X161876666Y-77352381D01*
X161448095Y-77447619D02*
X161400476Y-77400000D01*
X161305238Y-77352381D01*
X161067142Y-77352381D01*
X160971904Y-77400000D01*
X160924285Y-77447619D01*
X160876666Y-77542857D01*
X160876666Y-77638095D01*
X160924285Y-77780952D01*
X161495714Y-78352381D01*
X160876666Y-78352381D01*
X159924285Y-78352381D02*
X160495714Y-78352381D01*
X160210000Y-78352381D02*
X160210000Y-77352381D01*
X160305238Y-77495238D01*
X160400476Y-77590476D01*
X160495714Y-77638095D01*
X143352381Y-92761905D02*
X142352381Y-92761905D01*
X142828571Y-92761905D02*
X142828571Y-93333334D01*
X143352381Y-93333334D02*
X142352381Y-93333334D01*
X142447619Y-93761905D02*
X142400000Y-93809524D01*
X142352381Y-93904762D01*
X142352381Y-94142858D01*
X142400000Y-94238096D01*
X142447619Y-94285715D01*
X142542857Y-94333334D01*
X142638095Y-94333334D01*
X142780952Y-94285715D01*
X143352381Y-93714286D01*
X143352381Y-94333334D01*
X142447619Y-94714286D02*
X142400000Y-94761905D01*
X142352381Y-94857143D01*
X142352381Y-95095239D01*
X142400000Y-95190477D01*
X142447619Y-95238096D01*
X142542857Y-95285715D01*
X142638095Y-95285715D01*
X142780952Y-95238096D01*
X143352381Y-94666667D01*
X143352381Y-95285715D01*
M02*
