M48
;DRILL file {KiCad 4.0.7} date Sunday 08 October 2017 21:13:01
;FORMAT={-:-/ absolute / metric / decimal}
FMAT,2
METRIC,TZ
T1C0.800
T2C1.001
T3C1.016
%
G90
G05
M71
T1
X104.65Y-77.41
X104.65Y-79.91
X104.71Y-88.46
X104.71Y-90.96
X106.69Y-67.82
X111.69Y-67.82
X115.56Y-66.55
X115.56Y-71.55
X127.94Y-77.35
X127.94Y-79.89
X127.94Y-82.43
X127.94Y-84.97
X128.36Y-91.57
X128.36Y-94.07
X134.64Y-91.59
X134.64Y-94.09
X135.56Y-77.35
X135.56Y-79.89
X135.56Y-82.43
X135.56Y-84.97
X147.63Y-66.44
X147.63Y-71.44
X151.65Y-67.66
X156.65Y-67.66
X158.7Y-77.51
X158.7Y-80.01
X158.76Y-88.7
X158.76Y-91.2
T2
X101.53Y-71.76
X111.69Y-71.76
X112.88Y-76.53
X112.89Y-79.91
X112.89Y-83.44
X112.89Y-87.38
X112.89Y-90.99
X119.39Y-67.71
X119.41Y-71.73
X123.04Y-76.53
X123.05Y-79.91
X123.05Y-83.44
X123.05Y-87.38
X123.05Y-90.99
X129.55Y-67.71
X129.57Y-71.73
X133.3Y-67.75
X133.35Y-71.72
X140.22Y-80.03
X140.22Y-83.62
X140.22Y-87.31
X140.23Y-76.51
X140.23Y-90.94
X143.46Y-67.75
X143.51Y-71.72
X150.38Y-80.03
X150.38Y-83.62
X150.38Y-87.31
X150.39Y-76.51
X150.39Y-90.94
X151.24Y-71.67
X161.4Y-71.67
T3
X101.81Y-83.
X101.81Y-85.54
X109.92Y-62.
X112.46Y-62.
X112.46Y-94.
X115.Y-62.
X115.Y-94.
X128.46Y-62.
X131.Y-62.
X133.54Y-62.
X148.Y-62.
X148.Y-94.
X150.54Y-62.
X150.54Y-94.
X153.08Y-62.
X161.21Y-83.
X161.21Y-85.54
T0
M30
